<svg width="36" height="25" viewBox="0 0 36 25" fill="none" xmlns="http://www.w3.org/2000/svg">
<g clip-path="url(#clip0_211_505)">
<path d="M34.7723 3.89931C34.5683 3.14563 34.1705 2.45853 33.6184 1.90643C33.0663 1.35432 32.3793 0.956474 31.6256 0.7525C28.8664 0 17.7617 0 17.7617 0C17.7617 0 6.65642 0.0227777 3.89726 0.775278C3.14358 0.979264 2.45648 1.37713 1.9044 1.92926C1.35232 2.4814 0.95451 3.16852 0.750591 3.92222C-0.0839924 8.82472 -0.407742 16.295 0.773508 21.0014C0.977448 21.7551 1.37527 22.4422 1.92735 22.9943C2.47943 23.5464 3.16651 23.9442 3.92017 24.1482C6.67934 24.9007 17.7843 24.9007 17.7843 24.9007C17.7843 24.9007 28.8892 24.9007 31.6482 24.1482C32.4019 23.9442 33.089 23.5464 33.6411 22.9943C34.1932 22.4422 34.5911 21.7551 34.795 21.0014C35.6753 16.0919 35.9466 8.62625 34.7723 3.89931Z" fill="#FF0000"/>
<path d="M14.2275 17.7862L23.4398 12.4503L14.2275 7.1145V17.7862Z" fill="white"/>
</g>
<defs>
<clipPath id="clip0_211_505">
<rect width="35.56" height="25" fill="white"/>
</clipPath>
</defs>
</svg>
