<svg width="111" height="25" viewBox="0 0 111 25" fill="none" xmlns="http://www.w3.org/2000/svg">
<g clip-path="url(#clip0_210_501)">
<path d="M34.462 3.86422C34.2598 3.11728 33.8655 2.43633 33.3183 1.88918C32.7711 1.34203 32.0902 0.947779 31.3432 0.74569C28.6085 0 17.6033 0 17.6033 0C17.6033 0 6.59773 0.0226293 3.86347 0.768319C3.11655 0.970441 2.43561 1.36471 1.88847 1.91185C1.34132 2.459 0.947054 3.13994 0.744932 3.88685C-0.0822233 8.74569 -0.403128 16.1489 0.767561 20.8131C0.969683 21.5601 1.36395 22.241 1.9111 22.7881C2.45824 23.3353 3.13918 23.7296 3.8861 23.9317C6.62058 24.6774 17.626 24.6774 17.626 24.6774C17.626 24.6774 28.6314 24.6774 31.3658 23.9317C32.1128 23.7296 32.7937 23.3353 33.3408 22.7881C33.888 22.241 34.2823 21.5601 34.4844 20.8131C35.3566 15.9476 35.6255 8.54892 34.4617 3.86444" fill="#FF0000"/>
<path d="M14.1006 17.6266L23.2303 12.3387L14.1006 7.05054V17.6266Z" fill="white"/>
<path d="M105.873 7.16371C107.07 7.16371 107.974 7.38957 108.607 7.81888C109.24 8.2484 109.692 8.92621 109.963 9.85293C110.234 10.7794 110.347 12.0447 110.347 13.6719V16.3161H104.539V17.1294L104.63 19.3667C104.698 19.8639 104.811 20.2256 104.991 20.4514C105.172 20.6775 105.466 20.7904 105.85 20.7904C106.37 20.7904 106.732 20.5872 106.912 20.1805C107.116 19.7736 107.206 19.0956 107.229 18.1691L110.234 18.3499C110.257 18.4855 110.257 18.6663 110.257 18.8922C110.257 20.3159 109.873 21.3781 109.082 22.0786C108.291 22.779 107.206 23.1406 105.782 23.1406C104.065 23.1406 102.867 22.5984 102.189 21.5363C101.511 20.474 101.15 18.8016 101.15 16.5646V13.8301C101.227 9.98849 101.902 7.17491 105.873 7.16371ZM64.0884 7.45746V18.7792C64.0884 19.4572 64.156 19.9544 64.3142 20.2482C64.6351 20.8764 65.4668 20.7159 65.9188 20.4064C66.1797 20.23 66.39 19.9886 66.5289 19.7059V7.45724H69.9864V22.8919H67.2746L66.9808 20.9937H66.9131C66.1675 22.4174 65.0599 23.1404 63.5912 23.1404C61.3304 23.1348 60.7772 21.5059 60.6455 19.8516L60.6369 19.735C60.6206 19.4845 60.611 19.2335 60.6082 18.9825V7.45746H64.0884ZM81.9185 7.45746V18.7792C81.9185 19.4572 81.9862 19.9544 82.1444 20.2482C82.4655 20.8764 83.297 20.7159 83.7489 20.4064C84.0098 20.23 84.2201 19.9886 84.3591 19.7059V7.45724H87.8166V22.8919H85.1047L84.811 20.9937H84.7433C83.9976 22.4174 82.8901 23.1404 81.4213 23.1404C79.1606 23.1348 78.6073 21.5059 78.4757 19.8516L78.467 19.735C78.4508 19.4845 78.4412 19.2335 78.4384 18.9825V7.45746H81.9185ZM54.0545 7.16371C55.1845 7.16371 56.111 7.38957 56.789 7.86414C57.4668 8.33871 57.9866 9.06198 58.303 10.0562C58.6194 11.0506 58.7776 12.3837 58.7776 14.0335V16.2706C58.7776 17.9204 58.6194 19.2312 58.303 20.2253C57.9866 21.22 57.4894 21.943 56.789 22.4176C56.0886 22.8695 55.1392 23.118 53.9642 23.118C52.7438 23.1406 51.7946 22.8922 51.0942 22.4402C50.3938 21.9656 49.8963 21.2424 49.6028 20.2482C49.3088 19.2538 49.1733 17.943 49.1733 16.2934V14.0559C49.1733 12.4062 49.3315 11.0503 49.6705 10.0559C50.0095 9.03914 50.5291 8.31586 51.2524 7.86414C51.9754 7.41198 52.9019 7.16349 54.0545 7.16349M93.2403 0.97168V9.10702H93.2629C93.5793 8.51952 93.986 8.04496 94.5511 7.68332C95.0787 7.32852 95.7004 7.13967 96.3362 7.14108C97.1724 7.14108 97.8052 7.36694 98.2797 7.79625C98.7543 8.2484 99.0933 8.94884 99.2966 9.9206C99.4938 10.862 99.6058 12.1639 99.6127 13.8057L99.6129 13.9659V16.4064C99.6129 18.6887 99.3192 20.3837 98.7767 21.4684C98.2121 22.5531 97.3532 23.0956 96.178 23.0956C95.5228 23.0956 94.9351 22.9374 94.3929 22.6437C93.9133 22.3642 93.5156 21.9634 93.2399 21.4816L93.195 21.4006H93.1274L92.7657 22.8695H89.8957V0.971895L93.2403 0.97168ZM79.4099 1.76263V4.56457H75.975V22.8919H72.5853V4.56478H69.1278V1.76284L79.4099 1.76263ZM42.145 1.76263L42.1472 1.77125C42.1802 1.91802 42.6371 3.94927 43.1397 6.31586L43.1793 6.50336L43.2392 6.78677L43.2793 6.97707L43.2994 7.07254L43.3394 7.26392L43.3595 7.35983L43.3994 7.55185L43.4575 7.83267C43.797 9.47146 44.1209 11.115 44.3147 12.2934H44.4052C44.5907 11.2363 44.8603 9.88353 45.1478 8.50228L45.2233 8.14151C45.2612 7.9609 45.2991 7.7803 45.3375 7.60013L45.3966 7.3206C45.787 5.49018 46.189 3.66227 46.6028 1.83698L46.6093 1.80789L46.6196 1.76263H50.0772L46.0772 16.0223V22.8695H42.6649V16.0447H42.6422L38.6875 1.76241L42.145 1.76263ZM53.9866 9.55896C53.5121 9.55896 53.1957 9.80767 52.9925 10.3275C52.789 10.8471 52.6987 11.6381 52.6987 12.7456V17.559C52.6987 18.6889 52.789 19.5249 52.9698 20.0223C53.1506 20.5193 53.4897 20.768 53.9866 20.768C54.4612 20.768 54.8002 20.5193 55.0037 20.0223C55.2071 19.5249 55.2974 18.6889 55.2974 17.559V12.7454C55.2974 11.6381 55.2069 10.8245 55.0037 10.3273C54.8002 9.80767 54.4612 9.55896 53.9866 9.55896ZM93.8504 10.0111C93.575 10.2654 93.3791 10.579 93.2625 10.971L93.2403 11.0506V19.8187C93.5205 20.2932 93.9183 20.6096 94.6187 20.6322C94.9804 20.6322 95.2739 20.4967 95.5002 20.2256C95.7261 19.9544 95.8843 19.5023 95.9746 18.8695C96.0614 18.2622 96.1067 17.4256 96.1101 16.36V14.2144C96.1101 12.9941 96.0649 12.0676 95.9972 11.4122C95.9067 10.7568 95.794 10.2822 95.5905 10.0111C95.1972 9.44603 94.3476 9.45293 93.8504 10.0111ZM105.805 9.49129C105.421 9.51392 105.15 9.62685 104.991 9.8303C104.811 10.0562 104.698 10.3952 104.63 10.8924C104.563 11.3794 104.541 13.082 104.539 13.1501V14.2596H107.07V13.2812V13.2999C107.069 13.6419 107.062 13.1014 107.046 12.4378L107.044 12.3486C107.03 11.7654 107.009 11.1152 106.98 10.8924C106.912 10.3725 106.799 10.0109 106.619 9.80767C106.438 9.60422 106.167 9.49129 105.805 9.49129" fill="#282828"/>
</g>
<defs>
<clipPath id="clip0_210_501">
<rect width="110.35" height="25" fill="white"/>
</clipPath>
</defs>
</svg>
